<svg xmlns="http://www.w3.org/2000/svg" viewBox="0 0 512 512">
  <defs>
    <linearGradient id="bg" x1="0%" y1="0%" x2="100%" y2="100%">
      <stop offset="0%" stop-color="#8B83FF"/>
      <stop offset="100%" stop-color="#6C63FF"/>
    </linearGradient>
    <linearGradient id="liquid" x1="0%" y1="0%" x2="0%" y2="100%">
      <stop offset="0%" stop-color="#7EDDD7"/>
      <stop offset="100%" stop-color="#4ECDC4"/>
    </linearGradient>
  </defs>
  <rect width="512" height="512" rx="108" fill="url(#bg)"/>
  <rect x="176" y="96" width="160" height="32" rx="12" fill="#FFFFFF"/>
  <rect x="196" y="128" width="120" height="80" rx="6" fill="#E8EBFF"/>
  <path d="M 176 208 L 336 208 L 388 380 Q 388 430 256 430 Q 124 430 124 380 Z"
        fill="url(#liquid)" stroke="#FFFFFF" stroke-width="8"/>
  <ellipse cx="256" cy="260" rx="100" ry="14" fill="#FFFFFF" opacity="0.35"/>
  <circle cx="220" cy="320" r="14" fill="#FFFFFF" opacity="0.8"/>
  <circle cx="280" cy="300" r="10" fill="#FFFFFF" opacity="0.8"/>
  <circle cx="250" cy="360" r="16" fill="#FFFFFF" opacity="0.8"/>
  <circle cx="300" cy="350" r="9" fill="#FFFFFF" opacity="0.8"/>
  <circle cx="210" cy="380" r="7" fill="#FFFFFF" opacity="0.8"/>
  <circle cx="96" cy="120" r="10" fill="#FF6B6B"/>
  <circle cx="420" cy="140" r="8" fill="#F1C40F"/>
  <circle cx="420" cy="400" r="12" fill="#FFFFFF" opacity="0.7"/>
</svg>
